<svg xmlns="http://www.w3.org/2000/svg" xmlns:xlink="http://www.w3.org/1999/xlink" id="processonSvg1000" width="810.803" height="844.011" viewBox="63 122 810.803 844.011"><defs id="ProcessOnDefs1001"><marker id="ProcessOnMarker1096" markerHeight="10.551" markerUnits="userSpaceOnUse" markerWidth="16.236" orient="auto" refX="-1" refY="3.899" viewBox="-1 -1.376 16.236 10.551"><path id="ProcessOnPath1097" fill="#323232" stroke="#323232" stroke-width="2" d="M12.0 3.8990363547948754L0.0 7.798072709589751V0.0Z" transform="matrix(1.0,0.0,0.0,1.0,0.0,0.0)"/></marker><marker id="ProcessOnMarker1100" markerHeight="10.551" markerUnits="userSpaceOnUse" markerWidth="16.236" orient="auto" refX="-1" refY="3.899" viewBox="-1 -1.376 16.236 10.551"><path id="ProcessOnPath1101" fill="#323232" stroke="#323232" stroke-width="2" d="M12.0 3.8990363547948754L0.0 7.798072709589751V0.0Z" transform="matrix(1.0,0.0,0.0,1.0,0.0,0.0)"/></marker><marker id="ProcessOnMarker1134" markerHeight="10.551" markerUnits="userSpaceOnUse" markerWidth="16.236" orient="auto" refX="-1" refY="3.899" viewBox="-1 -1.376 16.236 10.551"><path id="ProcessOnPath1135" fill="#323232" stroke="#323232" stroke-width="2" d="M12.0 3.8990363547948754L0.0 7.798072709589751V0.0Z" transform="matrix(1.0,0.0,0.0,1.0,0.0,0.0)"/></marker></defs><g id="ProcessOnG1002"><path id="ProcessOnPath1003" fill="none" d="M63.0 122.0H873.8033008588991V966.0113636363636H63.0V122.0Z"/><g id="ProcessOnG1004"><g id="ProcessOnG1005" opacity="1" transform="matrix(1.0,0.0,0.0,1.0,414.0,142.0)"><path id="ProcessOnPath1006" fill="#fff" stroke="#323232" stroke-dasharray="none" stroke-width="2" d="M0.0 0.0L387.0 0.0L387.0 59.67045454545457L0.0 59.67045454545457Z" opacity="1"/><g id="ProcessOnG1007" transform="matrix(1.0,0.0,0.0,1.0,10.0,19.835227272727284)"><text id="ProcessOnText1008" x="182.5" y="16.4" fill="#000" family="微软雅黑" font-family="微软雅黑" font-size="16" font-style="normal" font-weight="normal" size="16" text-anchor="middle" text-decoration="none">0</text></g></g><g id="ProcessOnG1009" opacity="1" transform="matrix(1.0,0.0,0.0,1.0,83.0,142.0)"><path id="ProcessOnPath1010" fill="#e5e5e5" stroke="#323232" stroke-dasharray="none" stroke-width="2" d="M0.0 0.0L178.0 0.0L178.0 178.01136363636357L0.0 178.01136363636357Z" opacity="1"/><g id="ProcessOnG1011" transform="matrix(1.0,0.0,0.0,1.0,10.0,77.75568181818178)"><text id="ProcessOnText1012" x="78" y="18.45" fill="#000" family="微软雅黑" font-family="微软雅黑" font-size="18" font-style="normal" font-weight="normal" size="18" text-anchor="middle" text-decoration="none">genesis_block</text></g></g><g id="ProcessOnG1013" opacity="1" transform="matrix(1.0,0.0,0.0,1.0,261.0,142.00000000000003)"><path id="ProcessOnPath1014" fill="#fff" stroke="#323232" stroke-dasharray="none" stroke-width="2" d="M0.0 0.0L153.0 0.0L153.0 59.670454545454504L0.0 59.670454545454504Z" opacity="1"/><g id="ProcessOnG1015" transform="matrix(1.0,0.0,0.0,1.0,10.0,18.585227272727252)"><text id="ProcessOnText1016" x="65.5" y="18.45" fill="#000" family="微软雅黑" font-family="微软雅黑" font-size="18" font-style="normal" font-weight="normal" size="18" text-anchor="middle" text-decoration="none">previous_hash</text></g></g><g id="ProcessOnG1017" opacity="1" transform="matrix(1.0,0.0,0.0,1.0,261.0,200.67045454545453)"><path id="ProcessOnPath1018" fill="#fff" stroke="#323232" stroke-dasharray="none" stroke-width="2" d="M0.0 0.0L153.0 0.0L153.0 59.670454545454504L0.0 59.670454545454504Z" opacity="1"/><g id="ProcessOnG1019" transform="matrix(1.0,0.0,0.0,1.0,10.0,18.585227272727252)"><text id="ProcessOnText1020" x="65.5" y="18.45" fill="#000" family="微软雅黑" font-family="微软雅黑" font-size="18" font-style="normal" font-weight="normal" size="18" text-anchor="middle" text-decoration="none">data</text></g></g><g id="ProcessOnG1021" opacity="1" transform="matrix(1.0,0.0,0.0,1.0,261.0,260.340909090909)"><path id="ProcessOnPath1022" fill="#fff" stroke="#323232" stroke-dasharray="none" stroke-width="2" d="M0.0 0.0L153.0 0.0L153.0 59.670454545454504L0.0 59.670454545454504Z" opacity="1"/><g id="ProcessOnG1023" transform="matrix(1.0,0.0,0.0,1.0,10.0,18.585227272727252)"><text id="ProcessOnText1024" x="65.5" y="18.45" fill="#000" family="微软雅黑" font-family="微软雅黑" font-size="18" font-style="normal" font-weight="normal" size="18" text-anchor="middle" text-decoration="none">hash:</text></g></g><g id="ProcessOnG1025" opacity="1" transform="matrix(1.0,0.0,0.0,1.0,414.0,200.67045454545445)"><path id="ProcessOnPath1026" fill="#fff" stroke="#323232" stroke-dasharray="none" stroke-width="2" d="M0.0 0.0L387.0 0.0L387.0 59.67045454545457L0.0 59.67045454545457Z" opacity="1"/><g id="ProcessOnG1027" transform="matrix(1.0,0.0,0.0,1.0,10.0,19.835227272727284)"><text id="ProcessOnText1028" x="182.5" y="16.4" fill="#000" family="微软雅黑" font-family="微软雅黑" font-size="16" font-style="normal" font-weight="normal" size="16" text-anchor="middle" text-decoration="none">this is the genesis block</text></g></g><g id="ProcessOnG1029" opacity="1" transform="matrix(1.0,0.0,0.0,1.0,414.0,260.340909090909)"><path id="ProcessOnPath1030" fill="#fff" stroke="#323232" stroke-dasharray="none" stroke-width="2" d="M0.0 0.0L387.0 0.0L387.0 59.67045454545457L0.0 59.67045454545457Z" opacity="1"/><g id="ProcessOnG1031" transform="matrix(1.0,0.0,0.0,1.0,10.0,9.835227272727284)"><text id="ProcessOnText1032" x="182.5" y="16.4" fill="#000" family="微软雅黑" font-family="微软雅黑" font-size="16" font-style="normal" font-weight="normal" size="16" text-anchor="middle" text-decoration="none">bb8d6f67262cdda0872593280a5b0642a07a1196</text><text id="ProcessOnText1033" x="182.5" y="36.4" fill="#000" family="微软雅黑" font-family="微软雅黑" font-size="16" font-style="normal" font-weight="normal" size="16" text-anchor="middle" text-decoration="none">bbcc3042379811cf25b8c9d1</text></g></g><g id="ProcessOnG1034" opacity="1" transform="matrix(1.0,0.0,0.0,1.0,414.0,352.0)"><path id="ProcessOnPath1035" fill="#fff" stroke="#323232" stroke-dasharray="none" stroke-width="2" d="M0.0 0.0L387.0 0.0L387.0 59.67045454545457L0.0 59.67045454545457Z" opacity="1"/><g id="ProcessOnG1036" transform="matrix(1.0,0.0,0.0,1.0,10.0,9.835227272727284)"><text id="ProcessOnText1037" x="182.5" y="16.4" fill="#000" family="微软雅黑" font-family="微软雅黑" font-size="16" font-style="normal" font-weight="normal" size="16" text-anchor="middle" text-decoration="none">bb8d6f67262cdda0872593280a5b0642a07a1196</text><text id="ProcessOnText1038" x="182.5" y="36.4" fill="#000" family="微软雅黑" font-family="微软雅黑" font-size="16" font-style="normal" font-weight="normal" size="16" text-anchor="middle" text-decoration="none">bbcc3042379811cf25b8c9d1</text></g></g><g id="ProcessOnG1039" opacity="1" transform="matrix(1.0,0.0,0.0,1.0,83.0,352.0)"><path id="ProcessOnPath1040" fill="#e5e5e5" stroke="#323232" stroke-dasharray="none" stroke-width="2" d="M0.0 0.0L178.0 0.0L178.0 178.01136363636357L0.0 178.01136363636357Z" opacity="1"/><g id="ProcessOnG1041" transform="matrix(1.0,0.0,0.0,1.0,10.0,77.75568181818178)"><text id="ProcessOnText1042" x="78" y="18.45" fill="#000" family="微软雅黑" font-family="微软雅黑" font-size="18" font-style="normal" font-weight="normal" size="18" text-anchor="middle" text-decoration="none">block_1</text></g></g><g id="ProcessOnG1043" opacity="1" transform="matrix(1.0,0.0,0.0,1.0,261.0,352.0)"><path id="ProcessOnPath1044" fill="#fff" stroke="#323232" stroke-dasharray="none" stroke-width="2" d="M0.0 0.0L153.0 0.0L153.0 59.670454545454504L0.0 59.670454545454504Z" opacity="1"/><g id="ProcessOnG1045" transform="matrix(1.0,0.0,0.0,1.0,10.0,18.585227272727252)"><text id="ProcessOnText1046" x="65.5" y="18.45" fill="#000" family="微软雅黑" font-family="微软雅黑" font-size="18" font-style="normal" font-weight="normal" size="18" text-anchor="middle" text-decoration="none">previous_hash</text></g></g><g id="ProcessOnG1047" opacity="1" transform="matrix(1.0,0.0,0.0,1.0,261.0,410.67045454545456)"><path id="ProcessOnPath1048" fill="#fff" stroke="#323232" stroke-dasharray="none" stroke-width="2" d="M0.0 0.0L153.0 0.0L153.0 59.670454545454504L0.0 59.670454545454504Z" opacity="1"/><g id="ProcessOnG1049" transform="matrix(1.0,0.0,0.0,1.0,10.0,18.585227272727252)"><text id="ProcessOnText1050" x="65.5" y="18.45" fill="#000" family="微软雅黑" font-family="微软雅黑" font-size="18" font-style="normal" font-weight="normal" size="18" text-anchor="middle" text-decoration="none">data</text></g></g><g id="ProcessOnG1051" opacity="1" transform="matrix(1.0,0.0,0.0,1.0,261.0,470.340909090909)"><path id="ProcessOnPath1052" fill="#fff" stroke="#323232" stroke-dasharray="none" stroke-width="2" d="M0.0 0.0L153.0 0.0L153.0 59.670454545454504L0.0 59.670454545454504Z" opacity="1"/><g id="ProcessOnG1053" transform="matrix(1.0,0.0,0.0,1.0,10.0,18.585227272727252)"><text id="ProcessOnText1054" x="65.5" y="18.45" fill="#000" family="微软雅黑" font-family="微软雅黑" font-size="18" font-style="normal" font-weight="normal" size="18" text-anchor="middle" text-decoration="none">hash:</text></g></g><g id="ProcessOnG1055" opacity="1" transform="matrix(1.0,0.0,0.0,1.0,414.0,410.67045454545445)"><path id="ProcessOnPath1056" fill="#fff" stroke="#323232" stroke-dasharray="none" stroke-width="2" d="M0.0 0.0L387.0 0.0L387.0 59.67045454545457L0.0 59.67045454545457Z" opacity="1"/><g id="ProcessOnG1057" transform="matrix(1.0,0.0,0.0,1.0,10.0,19.835227272727284)"><text id="ProcessOnText1058" x="182.5" y="16.4" fill="#f33" family="微软雅黑" font-family="微软雅黑" font-size="16" font-style="normal" font-weight="normal" size="16" text-anchor="middle" text-decoration="none">this is block 2</text></g></g><g id="ProcessOnG1059" opacity="1" transform="matrix(1.0,0.0,0.0,1.0,414.0,470.340909090909)"><path id="ProcessOnPath1060" fill="#f33" stroke="#323232" stroke-dasharray="none" stroke-width="2" d="M0.0 0.0L387.0 0.0L387.0 59.67045454545457L0.0 59.67045454545457Z" opacity="1"/><g id="ProcessOnG1061" transform="matrix(1.0,0.0,0.0,1.0,10.0,9.835227272727284)"><text id="ProcessOnText1062" x="182.5" y="16.4" fill="#fff" family="微软雅黑" font-family="微软雅黑" font-size="16" font-style="normal" font-weight="normal" size="16" text-anchor="middle" text-decoration="none">0906977a66813074c24013ae6ddcbdbf6e437face</text><text id="ProcessOnText1063" x="182.5" y="36.4" fill="#fff" family="微软雅黑" font-family="微软雅黑" font-size="16" font-style="normal" font-weight="normal" size="16" text-anchor="middle" text-decoration="none">835eae43d1a45eb663ea5ec</text></g></g><g id="ProcessOnG1064" opacity="1" transform="matrix(1.0,0.0,0.0,1.0,414.0,561.0)"><path id="ProcessOnPath1065" fill="#f33" stroke="#323232" stroke-dasharray="none" stroke-width="2" d="M0.0 0.0L387.0 0.0L387.0 59.67045454545457L0.0 59.67045454545457Z" opacity="1"/><g id="ProcessOnG1066" transform="matrix(1.0,0.0,0.0,1.0,10.0,9.835227272727284)"><text id="ProcessOnText1067" x="182.5" y="16.4" fill="#fff" family="微软雅黑" font-family="微软雅黑" font-size="16" font-style="normal" font-weight="normal" size="16" text-anchor="middle" text-decoration="none">eef23e3fd8de411b5138dfc7c936f343fcb11cfce1</text><text id="ProcessOnText1068" x="182.5" y="36.4" fill="#fff" family="微软雅黑" font-family="微软雅黑" font-size="16" font-style="normal" font-weight="normal" size="16" text-anchor="middle" text-decoration="none">1757e6118b172a192307d5</text></g></g><g id="ProcessOnG1069" opacity="1" transform="matrix(1.0,0.0,0.0,1.0,83.0,561.0)"><path id="ProcessOnPath1070" fill="#e5e5e5" stroke="#323232" stroke-dasharray="none" stroke-width="2" d="M0.0 0.0L178.0 0.0L178.0 178.01136363636357L0.0 178.01136363636357Z" opacity="1"/><g id="ProcessOnG1071" transform="matrix(1.0,0.0,0.0,1.0,10.0,77.75568181818178)"><text id="ProcessOnText1072" x="78" y="18.45" fill="#000" family="微软雅黑" font-family="微软雅黑" font-size="18" font-style="normal" font-weight="normal" size="18" text-anchor="middle" text-decoration="none">block_2</text></g></g><g id="ProcessOnG1073" opacity="1" transform="matrix(1.0,0.0,0.0,1.0,261.0,561.0)"><path id="ProcessOnPath1074" fill="#fff" stroke="#323232" stroke-dasharray="none" stroke-width="2" d="M0.0 0.0L153.0 0.0L153.0 59.670454545454504L0.0 59.670454545454504Z" opacity="1"/><g id="ProcessOnG1075" transform="matrix(1.0,0.0,0.0,1.0,10.0,18.585227272727252)"><text id="ProcessOnText1076" x="65.5" y="18.45" fill="#000" family="微软雅黑" font-family="微软雅黑" font-size="18" font-style="normal" font-weight="normal" size="18" text-anchor="middle" text-decoration="none">previous_hash</text></g></g><g id="ProcessOnG1077" opacity="1" transform="matrix(1.0,0.0,0.0,1.0,261.0,619.6704545454545)"><path id="ProcessOnPath1078" fill="#fff" stroke="#323232" stroke-dasharray="none" stroke-width="2" d="M0.0 0.0L153.0 0.0L153.0 59.670454545454504L0.0 59.670454545454504Z" opacity="1"/><g id="ProcessOnG1079" transform="matrix(1.0,0.0,0.0,1.0,10.0,18.585227272727252)"><text id="ProcessOnText1080" x="65.5" y="18.45" fill="#000" family="微软雅黑" font-family="微软雅黑" font-size="18" font-style="normal" font-weight="normal" size="18" text-anchor="middle" text-decoration="none">data</text></g></g><g id="ProcessOnG1081" opacity="1" transform="matrix(1.0,0.0,0.0,1.0,261.0,679.340909090909)"><path id="ProcessOnPath1082" fill="#fff" stroke="#323232" stroke-dasharray="none" stroke-width="2" d="M0.0 0.0L153.0 0.0L153.0 59.670454545454504L0.0 59.670454545454504Z" opacity="1"/><g id="ProcessOnG1083" transform="matrix(1.0,0.0,0.0,1.0,10.0,18.585227272727252)"><text id="ProcessOnText1084" x="65.5" y="18.45" fill="#000" family="微软雅黑" font-family="微软雅黑" font-size="18" font-style="normal" font-weight="normal" size="18" text-anchor="middle" text-decoration="none">hash:</text></g></g><g id="ProcessOnG1085" opacity="1" transform="matrix(1.0,0.0,0.0,1.0,414.0,619.6704545454545)"><path id="ProcessOnPath1086" fill="#fff" stroke="#323232" stroke-dasharray="none" stroke-width="2" d="M0.0 0.0L387.0 0.0L387.0 59.67045454545457L0.0 59.67045454545457Z" opacity="1"/><g id="ProcessOnG1087" transform="matrix(1.0,0.0,0.0,1.0,10.0,19.835227272727284)"><text id="ProcessOnText1088" x="182.5" y="16.4" fill="#000" family="微软雅黑" font-family="微软雅黑" font-size="16" font-style="normal" font-weight="normal" size="16" text-anchor="middle" text-decoration="none">this is block 2</text></g></g><g id="ProcessOnG1089" opacity="1" transform="matrix(1.0,0.0,0.0,1.0,414.0,679.340909090909)"><path id="ProcessOnPath1090" fill="#fff" stroke="#323232" stroke-dasharray="none" stroke-width="2" d="M0.0 0.0L387.0 0.0L387.0 59.67045454545457L0.0 59.67045454545457Z" opacity="1"/><g id="ProcessOnG1091" transform="matrix(1.0,0.0,0.0,1.0,10.0,9.835227272727284)"><text id="ProcessOnText1092" x="182.5" y="16.4" fill="#000" family="微软雅黑" font-family="微软雅黑" font-size="16" font-style="normal" font-weight="normal" size="16" text-anchor="middle" text-decoration="none">802631e0a0a6efcace29b7d826b64b9bc59a29ec</text><text id="ProcessOnText1093" x="182.5" y="36.4" fill="#000" family="微软雅黑" font-family="微软雅黑" font-size="16" font-style="normal" font-weight="normal" size="16" text-anchor="middle" text-decoration="none">4b220afd562f1ccd66641961</text></g></g><g id="ProcessOnG1094"><path id="ProcessOnPath1095" fill="none" stroke="#323232" stroke-dasharray="none" stroke-width="2" marker-end="url(#ProcessOnMarker1096)" d="M801.0 381.83522727272725L831.0 381.83522727272725L831.0 290.17613636363626L816.2360679774998 290.17613636363626"/></g><g id="ProcessOnG1098"><path id="ProcessOnPath1099" fill="none" stroke="#323232" stroke-dasharray="none" stroke-width="2" marker-end="url(#ProcessOnMarker1100)" d="M801.0 590.8352272727273L831.0 590.8352272727273L831.0 500.17613636363626L816.2360679774998 500.17613636363626"/></g><g id="ProcessOnG1102" opacity="1" transform="matrix(1.0,0.0,0.0,1.0,414.0,768.0)"><path id="ProcessOnPath1103" fill="#fff" stroke="#323232" stroke-dasharray="none" stroke-width="2" d="M0.0 0.0L387.0 0.0L387.0 59.67045454545457L0.0 59.67045454545457Z" opacity="1"/><g id="ProcessOnG1104" transform="matrix(1.0,0.0,0.0,1.0,10.0,9.835227272727284)"><text id="ProcessOnText1105" x="182.5" y="16.4" fill="#000" family="微软雅黑" font-family="微软雅黑" font-size="16" font-style="normal" font-weight="normal" size="16" text-anchor="middle" text-decoration="none">802631e0a0a6efcace29b7d826b64b9bc59a29ec</text><text id="ProcessOnText1106" x="182.5" y="36.4" fill="#000" family="微软雅黑" font-family="微软雅黑" font-size="16" font-style="normal" font-weight="normal" size="16" text-anchor="middle" text-decoration="none">4b220afd562f1ccd66641961</text></g></g><g id="ProcessOnG1107" opacity="1" transform="matrix(1.0,0.0,0.0,1.0,83.0,768.0)"><path id="ProcessOnPath1108" fill="#e5e5e5" stroke="#323232" stroke-dasharray="none" stroke-width="2" d="M0.0 0.0L178.0 0.0L178.0 178.01136363636357L0.0 178.01136363636357Z" opacity="1"/><g id="ProcessOnG1109" transform="matrix(1.0,0.0,0.0,1.0,10.0,77.75568181818178)"><text id="ProcessOnText1110" x="78" y="18.45" fill="#000" family="微软雅黑" font-family="微软雅黑" font-size="18" font-style="normal" font-weight="normal" size="18" text-anchor="middle" text-decoration="none">block_3</text></g></g><g id="ProcessOnG1111" opacity="1" transform="matrix(1.0,0.0,0.0,1.0,261.0,768.0)"><path id="ProcessOnPath1112" fill="#fff" stroke="#323232" stroke-dasharray="none" stroke-width="2" d="M0.0 0.0L153.0 0.0L153.0 59.670454545454504L0.0 59.670454545454504Z" opacity="1"/><g id="ProcessOnG1113" transform="matrix(1.0,0.0,0.0,1.0,10.0,18.585227272727252)"><text id="ProcessOnText1114" x="65.5" y="18.45" fill="#000" family="微软雅黑" font-family="微软雅黑" font-size="18" font-style="normal" font-weight="normal" size="18" text-anchor="middle" text-decoration="none">previous_hash</text></g></g><g id="ProcessOnG1115" opacity="1" transform="matrix(1.0,0.0,0.0,1.0,261.0,826.6704545454545)"><path id="ProcessOnPath1116" fill="#fff" stroke="#323232" stroke-dasharray="none" stroke-width="2" d="M0.0 0.0L153.0 0.0L153.0 59.670454545454504L0.0 59.670454545454504Z" opacity="1"/><g id="ProcessOnG1117" transform="matrix(1.0,0.0,0.0,1.0,10.0,18.585227272727252)"><text id="ProcessOnText1118" x="65.5" y="18.45" fill="#000" family="微软雅黑" font-family="微软雅黑" font-size="18" font-style="normal" font-weight="normal" size="18" text-anchor="middle" text-decoration="none">data</text></g></g><g id="ProcessOnG1119" opacity="1" transform="matrix(1.0,0.0,0.0,1.0,261.0,886.340909090909)"><path id="ProcessOnPath1120" fill="#fff" stroke="#323232" stroke-dasharray="none" stroke-width="2" d="M0.0 0.0L153.0 0.0L153.0 59.670454545454504L0.0 59.670454545454504Z" opacity="1"/><g id="ProcessOnG1121" transform="matrix(1.0,0.0,0.0,1.0,10.0,18.585227272727252)"><text id="ProcessOnText1122" x="65.5" y="18.45" fill="#000" family="微软雅黑" font-family="微软雅黑" font-size="18" font-style="normal" font-weight="normal" size="18" text-anchor="middle" text-decoration="none">hash:</text></g></g><g id="ProcessOnG1123" opacity="1" transform="matrix(1.0,0.0,0.0,1.0,414.0,826.6704545454545)"><path id="ProcessOnPath1124" fill="#fff" stroke="#323232" stroke-dasharray="none" stroke-width="2" d="M0.0 0.0L387.0 0.0L387.0 59.67045454545457L0.0 59.67045454545457Z" opacity="1"/><g id="ProcessOnG1125" transform="matrix(1.0,0.0,0.0,1.0,10.0,19.835227272727284)"><text id="ProcessOnText1126" x="182.5" y="16.4" fill="#000" family="微软雅黑" font-family="微软雅黑" font-size="16" font-style="normal" font-weight="normal" size="16" text-anchor="middle" text-decoration="none">this is block 3</text></g></g><g id="ProcessOnG1127" opacity="1" transform="matrix(1.0,0.0,0.0,1.0,414.0,886.340909090909)"><path id="ProcessOnPath1128" fill="#fff" stroke="#323232" stroke-dasharray="none" stroke-width="2" d="M0.0 0.0L387.0 0.0L387.0 59.67045454545457L0.0 59.67045454545457Z" opacity="1"/><g id="ProcessOnG1129" transform="matrix(1.0,0.0,0.0,1.0,10.0,9.835227272727284)"><text id="ProcessOnText1130" x="182.5" y="16.4" fill="#000" family="微软雅黑" font-family="微软雅黑" font-size="16" font-style="normal" font-weight="normal" size="16" text-anchor="middle" text-decoration="none">ea4991a6b820214c68527d752b409d8a7a6e9cbd</text><text id="ProcessOnText1131" x="182.5" y="36.4" fill="#000" family="微软雅黑" font-family="微软雅黑" font-size="16" font-style="normal" font-weight="normal" size="16" text-anchor="middle" text-decoration="none">837373d737903e0f4d988d80</text></g></g><g id="ProcessOnG1132"><path id="ProcessOnPath1133" fill="none" stroke="#323232" stroke-dasharray="none" stroke-width="2" marker-end="url(#ProcessOnMarker1134)" d="M801.0 797.8352272727273L831.0 797.8352272727273L831.0 709.1761363636363L816.2360679774998 709.1761363636363"/></g><g id="ProcessOnG1136" opacity="1" transform="matrix(0.7071067811865476,0.7071067811865475,-0.7071067811865475,0.7071067811865476,831.0,511.5025253169416)"><path id="ProcessOnPath1137" fill="#f33" stroke="#f33" stroke-dasharray="none" stroke-width="2" d="M17.10247564417432 0.0L28.504126073623866 0.0L28.504126073623866 17.102475644174348L45.606601717798185 17.102475644174348L45.606601717798185 28.504126073623894L28.504126073623866 28.504126073623894L28.504126073623866 45.60660171779824L17.10247564417432 45.60660171779824L17.10247564417432 28.504126073623894L0.0 28.504126073623894L0.0 17.102475644174348L17.10247564417432 17.102475644174348Z" opacity="1"/></g></g></g></svg>